/vscmnt/brussel_pixiu_data/_data_brussel/112/vsc11236/PredSimResults/SUBJ04mtu3D/SUBJ04mtu3D_12829338.mot
version=1
nRows=5
nColumns=50
inDegrees=yes
endheader
                time	         pelvis_tilt	         pelvis_list	     pelvis_rotation	           pelvis_tx	           pelvis_ty	           pelvis_tz	       hip_flexion_r	     hip_adduction_r	      hip_rotation_r	        knee_angle_r	       ankle_angle_r	         mtp_angle_r	       hip_flexion_l	     hip_adduction_l	      hip_rotation_l	        knee_angle_l	       ankle_angle_l	         mtp_angle_l	    lumbar_extension	      lumbar_bending	     lumbar_rotation	 ercspn_r/activation	 intobl_r/activation	 extobl_r/activation	    abd_r/activation	    add_r/activation	hamstrings_r/activation	bifemsh_r/activation	glut_max_r/activation	iliopsoas_r/activation	rect_fem_r/activation	  vasti_r/activation	gastroc_r/activation	 soleus_r/activation	tib_ant_r/activation	 ercspn_l/activation	 intobl_l/activation	 extobl_l/activation	    abd_l/activation	    add_l/activation	hamstrings_l/activation	bifemsh_l/activation	glut_max_l/activation	iliopsoas_l/activation	rect_fem_l/activation	  vasti_l/activation	gastroc_l/activation	 soleus_l/activation	tib_ant_l/activation	
          1.34460159	         -4.91392820	         -4.72648782	         12.18339434	          1.26392550	          0.88334444	         -0.01947717	         24.22777341	          0.33993414	         -5.01087154	          2.54700236	          5.25948707	          0.21299114	         -9.83849417	         -4.73480002	         14.29606554	         -8.44410279	         11.80391918	         24.33489513	         -3.86107398	          1.87360488	         -1.27142532	          0.09734816	          0.17323056	          0.01986943	          0.02724145	          0.10038616	          0.02434529	          0.01000000	          0.00999999	          0.06170957	          0.00999999	          0.01588158	          0.00999999	          0.00999999	          0.26456468	          0.03194184	          0.00999999	          0.00999999	          0.08144711	          0.00999999	          0.01826986	          0.13746585	          0.06170957	          0.31680805	          0.00999999	          0.00999999	          0.29291533	          0.27353447	          0.01473300	
          1.35804761	         -5.03137105	         -4.61424674	         12.05450383	          1.27900645	          0.88156513	         -0.01852104	         23.84183871	          0.60788149	         -3.74643291	          1.98948054	          4.90343504	          0.22006224	        -10.04840303	         -4.58696468	         13.48261733	         -9.77796262	         11.47710386	         26.03998918	         -3.58188555	          2.15066880	         -1.54494916	          0.07952629	          0.17071021	          0.01623186	          0.02225426	          0.11715686	          0.02455492	          0.01000000	          0.01229005	          0.05041219	          0.01000000	          0.01297409	          0.01645669	          0.01498421	          0.26697166	          0.05717441	          0.00999999	          0.00999999	          0.06653631	          0.01748382	          0.01492515	          0.11229950	          0.05041218	          0.28357341	          0.00999999	          0.00999999	          0.26788889	          0.26496592	          0.01203578	
          1.37149363	         -5.13214937	         -4.50019837	         11.85580647	          1.29445452	          0.87995310	         -0.01747818	         23.33044172	          0.87757234	         -2.52928246	          1.39821187	          4.48559961	          0.21198627	        -10.20026400	         -4.42256359	         12.63281767	        -11.29407978	         11.02073565	         27.77023603	         -3.28659261	          2.45068352	         -1.80810416	          0.06899899	          0.17597145	          0.01326024	          0.03747829	          0.09570855	          0.02783365	          0.06392827	          0.02057538	          0.04118305	          0.00999999	          0.01059888	          0.01344390	          0.01224100	          0.30460967	          0.08286574	          0.00999999	          0.00999999	          0.05435527	          0.02698572	          0.01219276	          0.09174044	          0.04118305	          0.24769292	          0.01000000	          0.00999999	          0.23881442	          0.24857881	          0.00999999	
          1.38493964	         -5.21713574	         -4.38840617	         11.57999250	          1.31008425	          0.87871438	         -0.01633115	         22.71948106	          1.16850629	         -1.38800765	          0.98428171	          3.94599134	          0.19840287	        -10.23380480	         -4.23522492	         11.73485878	        -13.06164326	         10.38036415	         29.50735333	         -2.99356364	          2.77655789	         -2.06053646	          0.07019024	          0.14970114	          0.01083264	          0.06223457	          0.07818686	          0.03095881	          0.05222470	          0.03301045	          0.03364353	          0.00999999	          0.00999999	          0.01098268	          0.01000000	          0.33108078	          0.10627552	          0.00999999	          0.00999999	          0.04440427	          0.02877398	          0.01000001	          0.07494520	          0.03364353	          0.20996104	          0.01113423	          0.00999999	          0.19509384	          0.22676494	          0.00999999	
          1.39838566	         -5.28669682	         -4.27803958	         11.22886121	          1.32575307	          0.87800925	         -0.01509752	         22.04698319	          1.47903896	         -0.32885505	          0.64369064	          3.46996215	          0.18310080	        -10.11811692	         -4.02174348	         10.76867086	        -15.10002000	          9.52203516	         31.17049761	         -2.71341852	          3.12606243	         -2.29962378	          0.06503647	          0.12229484	          0.00999999	          0.08297933	          0.06387292	          0.03566619	          0.04266375	          0.03745948	          0.02748429	          0.00999999	          0.01123155	          0.00999999	          0.00999999	          0.35285411	          0.12200581	          0.00999999	          0.00999999	          0.03627502	          0.03164208	          0.01177737	          0.06122473	          0.02748429	          0.18420094	          0.00999999	          0.00999999	          0.15937733	          0.18694373	          0.00999999	
